<svg xmlns="http://www.w3.org/2000/svg" xmlns:xlink="http://www.w3.org/1999/xlink" width="500" zoomAndPan="magnify" viewBox="0 0 375 374.999991" height="500" preserveAspectRatio="xMidYMid meet" version="1.0"><defs><clipPath id="ff6173e674"><path d="M 42 15.597656 L 362 15.597656 L 362 205 L 42 205 Z M 42 15.597656 " clip-rule="nonzero"/></clipPath><clipPath id="5329515ab9"><path d="M 0 179 L 369 179 L 369 359.097656 L 0 359.097656 Z M 0 179 " clip-rule="nonzero"/></clipPath></defs><g clip-path="url(#ff6173e674)"><path fill="#82b306" d="M 361.023438 124.351562 C 361.328125 128.804688 362.015625 132.792969 360.488281 135.5 C 358.492188 138.675781 356.417969 141.398438 352.433594 142.160156 C 289.351562 146.453125 246.839844 167.757812 199.109375 191.769531 C 199.109375 191.769531 186.367188 198.132812 186.367188 198.132812 C 170.335938 206.128906 151.890625 205.746094 134.925781 201.476562 C 120.90625 197.941406 107.542969 191.875 94.972656 184.625 C 88.066406 180.636719 81.367188 176.257812 74.875 171.585938 C 68.785156 167.199219 62.234375 163.25 58.464844 156.371094 C 56.511719 152.808594 55.480469 148.582031 56.234375 144.566406 C 57.199219 139.429688 60.386719 136.742188 64.941406 135.566406 C 70.46875 134.136719 76 131.695312 81.390625 129.769531 C 85.84375 128.179688 90.296875 126.746094 94.742188 125.316406 C 99.5 124.679688 104.414062 124.519531 109.320312 124.519531 C 117.914062 124.679688 126.8125 125.476562 135.410156 127.222656 C 138.324219 127.703125 142.625 128.972656 145.695312 129.609375 C 148.609375 130.566406 153.0625 131.835938 155.828125 133.105469 C 162.582031 135.332031 169.023438 138.667969 175.316406 142.332031 C 177.003906 143.289062 179.308594 142.492188 180.230469 140.265625 C 181.304688 138.039062 180.6875 135.171875 178.847656 134.0625 C 167.792969 126.273438 155.671875 120.070312 143.238281 115.9375 C 140.167969 114.980469 137.097656 114.03125 133.875 113.234375 C 156.28125 106.871094 178.6875 101.628906 201.246094 97.972656 C 221.199219 95.105469 241.613281 93.039062 261.257812 96.703125 C 265.710938 97.339844 266.785156 89.542969 262.640625 88.433594 C 242.230469 83.5 221.359375 84.457031 200.632812 86.367188 C 190.960938 87.324219 181.449219 88.59375 171.78125 90.179688 C 176.382812 86.523438 180.835938 82.550781 184.820312 78.097656 C 185.4375 77.460938 186.664062 76.191406 187.125 75.550781 C 187.738281 74.753906 188.8125 73.644531 189.425781 72.847656 C 193.726562 67.285156 197.5625 61.082031 200.480469 54.082031 C 202.628906 48.679688 196.640625 44.703125 194.1875 49.789062 C 192.34375 53.765625 190.195312 57.417969 187.738281 60.761719 L 185.742188 63.308594 C 185.28125 63.785156 183.746094 65.535156 183.285156 66.171875 C 182.210938 67.441406 180.832031 68.878906 179.601562 69.988281 C 165.632812 83.660156 147.21875 92.886719 129.570312 98.609375 C 101.789062 104.96875 74.316406 112.601562 46.84375 121.347656 C 43.621094 122.457031 41.472656 117.53125 43.773438 114.347656 C 86.144531 56.304688 144.3125 15.597656 206.011719 15.597656 C 211.078125 15.597656 215.992188 15.917969 220.902344 16.394531 C 262.03125 20.691406 305.164062 41.675781 335.707031 76.023438 C 345.992188 87.308594 359.492188 106.074219 361.027344 124.359375 Z M 361.023438 124.351562 " fill-opacity="1" fill-rule="nonzero"/></g><g clip-path="url(#5329515ab9)"><path fill="#4da8c7" d="M 363.019531 207.359375 C 358.566406 206.878906 356.570312 203.0625 358.414062 198.769531 C 361.945312 192.25 358.1875 188.183594 351.351562 186.367188 C 344.515625 184.550781 325.476562 186.171875 320.027344 187.289062 C 282.070312 195.070312 251.519531 210.382812 216.292969 228.183594 L 203.242188 234.703125 C 188.972656 241.859375 173.773438 245.039062 157.96875 245.039062 C 126.339844 245.039062 92.714844 231.882812 61.023438 210.804688 C 52.210938 203.277344 44.402344 194.476562 38.207031 184.535156 C 37.339844 183.140625 36.480469 181.707031 35.234375 180.667969 C 33.988281 179.632812 32.253906 179.054688 30.761719 179.652344 C 29.199219 180.277344 28.28125 182.054688 28.128906 183.789062 C 27.90625 186.355469 28.710938 189.464844 29.117188 192.011719 C 29.613281 195.125 30.214844 198.222656 30.878906 201.308594 C 31.035156 201.628906 31.035156 201.789062 31.035156 202.105469 C 32.109375 206.878906 33.644531 211.804688 35.640625 216.578125 C 36.40625 218.644531 37.175781 220.710938 37.941406 222.300781 C 38.554688 224.046875 39.476562 225.476562 40.089844 226.59375 C 38.863281 227.390625 37.632812 228.183594 36.253906 228.820312 C 30.878906 232.15625 26.121094 235.5 21.980469 239.15625 C 19.679688 240.902344 17.53125 242.652344 15.535156 244.558594 C 7.707031 252.191406 3.101562 258.871094 1.417969 261.257812 C 1.265625 261.414062 1.265625 261.734375 1.265625 261.734375 C -1.039062 264.757812 -0.117188 269.523438 3.414062 269.84375 C 4.640625 269.683594 5.871094 269.523438 6.945312 269.367188 C 7.097656 269.367188 7.25 269.367188 7.40625 269.207031 C 8.785156 268.886719 10.015625 268.410156 11.242188 267.9375 L 19.226562 265.867188 C 21.527344 265.230469 23.984375 264.597656 26.285156 264.121094 C 34.730469 261.894531 43.011719 259.828125 51.304688 257.601562 C 52.222656 257.441406 53.144531 257.121094 54.066406 256.960938 L 54.527344 256.960938 C 59.746094 255.691406 65.273438 255.054688 70.179688 257.121094 C 75.550781 259.507812 79.082031 264.753906 82.765625 269.683594 C 83.226562 270.324219 83.535156 270.792969 83.996094 271.273438 C 92.132812 281.609375 101.488281 290.675781 111.929688 298.144531 C 130.695312 311.941406 151.484375 319.011719 173.128906 326.246094 C 185.28125 329.828125 197.796875 332.078125 210.398438 332.980469 C 216.820312 333.441406 223.265625 333.550781 229.707031 333.304688 C 234.328125 333.128906 239.390625 331.132812 242.933594 335.152344 C 244.871094 337.347656 246.546875 340.222656 249.359375 340.839844 C 251.167969 341.238281 253.261719 340.609375 254.78125 341.714844 C 256.832031 343.210938 256.304688 346.734375 258.078125 348.566406 C 260.085938 350.644531 263.632812 349.371094 266.195312 350.652344 C 267.808594 351.460938 268.792969 353.167969 269.695312 354.773438 C 270.597656 356.382812 271.617188 358.074219 273.261719 358.824219 C 279.097656 361.464844 290.757812 344.039062 293.410156 339.855469 C 296.128906 335.570312 298.414062 330.976562 300.1875 326.191406 C 301.078125 323.796875 301.839844 321.351562 302.472656 318.871094 C 302.730469 317.859375 303.191406 312.402344 303.867188 311.964844 C 320.097656 301.453125 334.753906 290.257812 346.285156 274.132812 C 352.425781 265.542969 356.265625 256.960938 358.40625 248.855469 C 362.550781 239.476562 367.53125 224.25 368.230469 219.59375 C 368.925781 214.9375 367.980469 207.886719 363.011719 207.351562 Z M 363.019531 207.359375 " fill-opacity="1" fill-rule="nonzero"/></g></svg>